<mxfile host="65bd71144e">
    <diagram id="myNODDpeAmznOwLp-JxJ" name="PÃ¡gina-1">
        <mxGraphModel dx="1087" dy="1476" grid="1" gridSize="10" guides="1" tooltips="1" connect="1" arrows="1" fold="1" page="1" pageScale="1" pageWidth="827" pageHeight="1169" math="0" shadow="0">
            <root>
                <mxCell id="0"/>
                <mxCell id="1" parent="0"/>
                <mxCell id="4" value="" style="edgeStyle=none;html=1;" edge="1" parent="1" source="2" target="3">
                    <mxGeometry relative="1" as="geometry"/>
                </mxCell>
                <mxCell id="2" value="INICIO" style="ellipse;whiteSpace=wrap;html=1;" vertex="1" parent="1">
                    <mxGeometry x="110" y="-260" width="120" height="80" as="geometry"/>
                </mxCell>
                <mxCell id="6" value="" style="edgeStyle=none;html=1;" edge="1" parent="1" source="3" target="5">
                    <mxGeometry relative="1" as="geometry"/>
                </mxCell>
                <mxCell id="3" value="suma de puntos=0&lt;br&gt;suma de puntos j=0&lt;br&gt;i=1" style="whiteSpace=wrap;html=1;" vertex="1" parent="1">
                    <mxGeometry x="110" y="-140" width="120" height="60" as="geometry"/>
                </mxCell>
                <mxCell id="8" value="" style="edgeStyle=none;html=1;" edge="1" parent="1" source="5" target="7">
                    <mxGeometry relative="1" as="geometry"/>
                </mxCell>
                <mxCell id="5" value="i&amp;lt;=2" style="rhombus;whiteSpace=wrap;html=1;" vertex="1" parent="1">
                    <mxGeometry x="130" y="-10" width="80" height="80" as="geometry"/>
                </mxCell>
                <mxCell id="10" value="" style="edgeStyle=none;html=1;" edge="1" parent="1" source="7" target="9">
                    <mxGeometry relative="1" as="geometry"/>
                </mxCell>
                <mxCell id="7" value="suma de puntos j=suma de puntos j+jugador&lt;br&gt;suma de puntos j=suma de puntos j+pc" style="whiteSpace=wrap;html=1;" vertex="1" parent="1">
                    <mxGeometry x="60" y="160" width="220" height="90" as="geometry"/>
                </mxCell>
                <mxCell id="12" value="" style="edgeStyle=none;html=1;exitX=0.5;exitY=1;exitDx=0;exitDy=0;entryX=0.5;entryY=0;entryDx=0;entryDy=0;" edge="1" parent="1" source="9" target="11">
                    <mxGeometry relative="1" as="geometry">
                        <mxPoint x="220" y="390" as="sourcePoint"/>
                        <Array as="points">
                            <mxPoint x="170" y="440"/>
                            <mxPoint x="260" y="440"/>
                            <mxPoint x="260" y="400"/>
                            <mxPoint x="335" y="400"/>
                        </Array>
                    </mxGeometry>
                </mxCell>
                <mxCell id="9" value="x==1" style="rhombus;whiteSpace=wrap;html=1;" vertex="1" parent="1">
                    <mxGeometry x="130" y="335" width="80" height="80" as="geometry"/>
                </mxCell>
                <mxCell id="14" value="" style="edgeStyle=none;html=1;" edge="1" parent="1" source="11" target="13">
                    <mxGeometry relative="1" as="geometry"/>
                </mxCell>
                <mxCell id="11" value="suma de puntos j&amp;lt;=21 and x!=2" style="rhombus;whiteSpace=wrap;html=1;" vertex="1" parent="1">
                    <mxGeometry x="240" y="430" width="190" height="110" as="geometry"/>
                </mxCell>
                <mxCell id="16" value="" style="edgeStyle=none;html=1;" edge="1" parent="1" source="13" target="15">
                    <mxGeometry relative="1" as="geometry"/>
                </mxCell>
                <mxCell id="13" value="d=ramdom.randit(1,10)" style="whiteSpace=wrap;html=1;" vertex="1" parent="1">
                    <mxGeometry x="267.5" y="585" width="135" height="65" as="geometry"/>
                </mxCell>
                <mxCell id="18" value="" style="edgeStyle=none;html=1;exitX=1;exitY=0.5;exitDx=0;exitDy=0;" edge="1" parent="1" source="15" target="17">
                    <mxGeometry relative="1" as="geometry">
                        <Array as="points">
                            <mxPoint x="520" y="781"/>
                        </Array>
                    </mxGeometry>
                </mxCell>
                <mxCell id="15" value="suma de puntos j&amp;gt;21" style="rhombus;whiteSpace=wrap;html=1;" vertex="1" parent="1">
                    <mxGeometry x="282.5" y="722.5" width="105" height="117.5" as="geometry"/>
                </mxCell>
                <mxCell id="17" value="volaste" style="shape=document;whiteSpace=wrap;html=1;boundedLbl=1;" vertex="1" parent="1">
                    <mxGeometry x="460" y="830" width="120" height="80" as="geometry"/>
                </mxCell>
                <mxCell id="19" value="x=1 segur&lt;br&gt;2plantar" style="rounded=0;whiteSpace=wrap;html=1;" vertex="1" parent="1">
                    <mxGeometry x="148" y="860" width="120" height="60" as="geometry"/>
                </mxCell>
                <mxCell id="20" value="" style="endArrow=classic;html=1;exitX=0;exitY=0.5;exitDx=0;exitDy=0;" edge="1" parent="1" source="15">
                    <mxGeometry width="50" height="50" relative="1" as="geometry">
                        <mxPoint x="50" y="890" as="sourcePoint"/>
                        <mxPoint x="200" y="860" as="targetPoint"/>
                        <Array as="points">
                            <mxPoint x="200" y="781"/>
                        </Array>
                    </mxGeometry>
                </mxCell>
                <mxCell id="21" value="" style="endArrow=classic;html=1;exitX=0;exitY=0.5;exitDx=0;exitDy=0;" edge="1" parent="1" source="19">
                    <mxGeometry width="50" height="50" relative="1" as="geometry">
                        <mxPoint x="100" y="1000" as="sourcePoint"/>
                        <mxPoint x="50" y="950" as="targetPoint"/>
                        <Array as="points">
                            <mxPoint x="50" y="890"/>
                        </Array>
                    </mxGeometry>
                </mxCell>
                <mxCell id="22" value="suma de puntos j&amp;gt;21" style="rhombus;whiteSpace=wrap;html=1;" vertex="1" parent="1">
                    <mxGeometry x="10" y="950" width="80" height="80" as="geometry"/>
                </mxCell>
                <mxCell id="23" value="" style="endArrow=classic;html=1;exitX=1;exitY=0.5;exitDx=0;exitDy=0;" edge="1" parent="1" source="22">
                    <mxGeometry width="50" height="50" relative="1" as="geometry">
                        <mxPoint x="190" y="1050" as="sourcePoint"/>
                        <mxPoint x="160" y="1050" as="targetPoint"/>
                        <Array as="points">
                            <mxPoint x="160" y="990"/>
                        </Array>
                    </mxGeometry>
                </mxCell>
                <mxCell id="25" value="volaste" style="shape=document;whiteSpace=wrap;html=1;boundedLbl=1;" vertex="1" parent="1">
                    <mxGeometry x="100" y="1050" width="120" height="80" as="geometry"/>
                </mxCell>
                <mxCell id="26" value="" style="endArrow=classic;html=1;exitX=0;exitY=0.5;exitDx=0;exitDy=0;" edge="1" parent="1" source="22">
                    <mxGeometry width="50" height="50" relative="1" as="geometry">
                        <mxPoint y="1140" as="sourcePoint"/>
                        <mxPoint x="-60" y="1060" as="targetPoint"/>
                        <Array as="points">
                            <mxPoint x="-60" y="990"/>
                        </Array>
                    </mxGeometry>
                </mxCell>
                <mxCell id="27" value="x==2" style="rhombus;whiteSpace=wrap;html=1;" vertex="1" parent="1">
                    <mxGeometry x="-100" y="1060" width="80" height="80" as="geometry"/>
                </mxCell>
                <mxCell id="28" value="" style="edgeStyle=none;html=1;exitX=1;exitY=0.5;exitDx=0;exitDy=0;" edge="1" parent="1" source="29" target="30">
                    <mxGeometry relative="1" as="geometry">
                        <Array as="points">
                            <mxPoint x="130" y="1248.5"/>
                        </Array>
                    </mxGeometry>
                </mxCell>
                <mxCell id="29" value="suma de puntos pc&amp;gt;21" style="rhombus;whiteSpace=wrap;html=1;" vertex="1" parent="1">
                    <mxGeometry x="-107.5" y="1190" width="105" height="117.5" as="geometry"/>
                </mxCell>
                <mxCell id="30" value="tallador" style="shape=document;whiteSpace=wrap;html=1;boundedLbl=1;" vertex="1" parent="1">
                    <mxGeometry x="70" y="1307.5" width="120" height="80" as="geometry"/>
                </mxCell>
                <mxCell id="32" value="" style="endArrow=classic;html=1;exitX=0;exitY=0.5;exitDx=0;exitDy=0;" edge="1" parent="1" source="29">
                    <mxGeometry width="50" height="50" relative="1" as="geometry">
                        <mxPoint x="-340" y="1357.5" as="sourcePoint"/>
                        <mxPoint x="-190" y="1327.5" as="targetPoint"/>
                        <Array as="points">
                            <mxPoint x="-190" y="1248.5"/>
                        </Array>
                    </mxGeometry>
                </mxCell>
                <mxCell id="33" value="" style="endArrow=classic;html=1;exitX=0;exitY=0.5;exitDx=0;exitDy=0;" edge="1" parent="1">
                    <mxGeometry width="50" height="50" relative="1" as="geometry">
                        <mxPoint x="-240" y="1379.9999999999995" as="sourcePoint"/>
                        <mxPoint x="-338" y="1440" as="targetPoint"/>
                        <Array as="points">
                            <mxPoint x="-338" y="1380"/>
                        </Array>
                    </mxGeometry>
                </mxCell>
                <mxCell id="34" value="" style="endArrow=classic;html=1;exitX=0.5;exitY=1;exitDx=0;exitDy=0;entryX=0.5;entryY=0;entryDx=0;entryDy=0;" edge="1" parent="1" source="27" target="29">
                    <mxGeometry width="50" height="50" relative="1" as="geometry">
                        <mxPoint x="-40" y="1220" as="sourcePoint"/>
                        <mxPoint x="10" y="1170" as="targetPoint"/>
                    </mxGeometry>
                </mxCell>
                <mxCell id="35" value="suma de tallador&amp;gt;suma de jugador" style="rhombus;whiteSpace=wrap;html=1;" vertex="1" parent="1">
                    <mxGeometry x="-240" y="1330" width="100" height="100" as="geometry"/>
                </mxCell>
                <mxCell id="39" value="" style="edgeStyle=none;html=1;exitX=1;exitY=0.5;exitDx=0;exitDy=0;entryX=0.5;entryY=0;entryDx=0;entryDy=0;" edge="1" parent="1" source="36" target="38">
                    <mxGeometry relative="1" as="geometry">
                        <Array as="points">
                            <mxPoint x="120" y="1485"/>
                        </Array>
                    </mxGeometry>
                </mxCell>
                <mxCell id="36" value="suma de puntos-sumade puntos j" style="rhombus;whiteSpace=wrap;html=1;" vertex="1" parent="1">
                    <mxGeometry x="-115" y="1430" width="110" height="110" as="geometry"/>
                </mxCell>
                <mxCell id="37" value="" style="endArrow=classic;html=1;exitX=1;exitY=0.5;exitDx=0;exitDy=0;entryX=0.5;entryY=0;entryDx=0;entryDy=0;" edge="1" parent="1" source="35" target="36">
                    <mxGeometry width="50" height="50" relative="1" as="geometry">
                        <mxPoint x="-120" y="1450" as="sourcePoint"/>
                        <mxPoint x="-70" y="1400" as="targetPoint"/>
                        <Array as="points">
                            <mxPoint x="-60" y="1380"/>
                        </Array>
                    </mxGeometry>
                </mxCell>
                <mxCell id="38" value="tallador gana por un punto" style="whiteSpace=wrap;html=1;" vertex="1" parent="1">
                    <mxGeometry x="60" y="1540" width="120" height="60" as="geometry"/>
                </mxCell>
                <mxCell id="40" value="gana tallador por suma de puntos" style="rounded=0;whiteSpace=wrap;html=1;" vertex="1" parent="1">
                    <mxGeometry x="-260" y="1540" width="120" height="60" as="geometry"/>
                </mxCell>
                <mxCell id="41" value="" style="endArrow=classic;html=1;exitX=0;exitY=0.5;exitDx=0;exitDy=0;entryX=0.5;entryY=0;entryDx=0;entryDy=0;" edge="1" parent="1" source="36" target="40">
                    <mxGeometry width="50" height="50" relative="1" as="geometry">
                        <mxPoint x="-170" y="1510" as="sourcePoint"/>
                        <mxPoint x="-120" y="1460" as="targetPoint"/>
                        <Array as="points">
                            <mxPoint x="-200" y="1485"/>
                        </Array>
                    </mxGeometry>
                </mxCell>
                <mxCell id="42" value="suma de puntos == suma de puntos pc" style="rounded=0;whiteSpace=wrap;html=1;" vertex="1" parent="1">
                    <mxGeometry x="-400" y="1440" width="120" height="60" as="geometry"/>
                </mxCell>
                <mxCell id="43" value="" style="endArrow=classic;html=1;exitX=0.5;exitY=1;exitDx=0;exitDy=0;" edge="1" parent="1" source="42">
                    <mxGeometry width="50" height="50" relative="1" as="geometry">
                        <mxPoint x="-340" y="1590" as="sourcePoint"/>
                        <mxPoint x="-340" y="1550" as="targetPoint"/>
                    </mxGeometry>
                </mxCell>
                <mxCell id="44" value="suma de puntos pc &amp;gt;21" style="rhombus;whiteSpace=wrap;html=1;" vertex="1" parent="1">
                    <mxGeometry x="-385" y="1550" width="90" height="90" as="geometry"/>
                </mxCell>
                <mxCell id="45" value="" style="endArrow=classic;html=1;exitX=1;exitY=0.5;exitDx=0;exitDy=0;" edge="1" parent="1" source="44">
                    <mxGeometry width="50" height="50" relative="1" as="geometry">
                        <mxPoint x="-350" y="1710" as="sourcePoint"/>
                        <mxPoint x="-270" y="1660" as="targetPoint"/>
                        <Array as="points">
                            <mxPoint x="-270" y="1595"/>
                        </Array>
                    </mxGeometry>
                </mxCell>
                <mxCell id="46" value="tallador a volado" style="shape=document;whiteSpace=wrap;html=1;boundedLbl=1;" vertex="1" parent="1">
                    <mxGeometry x="-330" y="1660" width="120" height="80" as="geometry"/>
                </mxCell>
                <mxCell id="47" value="" style="endArrow=classic;html=1;exitX=0;exitY=0.5;exitDx=0;exitDy=0;" edge="1" parent="1" source="44">
                    <mxGeometry width="50" height="50" relative="1" as="geometry">
                        <mxPoint x="-490" y="1690" as="sourcePoint"/>
                        <mxPoint x="-460" y="1670" as="targetPoint"/>
                        <Array as="points">
                            <mxPoint x="-460" y="1595"/>
                        </Array>
                    </mxGeometry>
                </mxCell>
                <mxCell id="48" value="suma de puntos tallado&amp;lt;==suma de puntos j" style="rhombus;whiteSpace=wrap;html=1;" vertex="1" parent="1">
                    <mxGeometry x="-510" y="1670" width="103" height="110" as="geometry"/>
                </mxCell>
                <mxCell id="49" value="" style="endArrow=classic;html=1;exitX=1.004;exitY=0.551;exitDx=0;exitDy=0;exitPerimeter=0;" edge="1" parent="1" source="48">
                    <mxGeometry width="50" height="50" relative="1" as="geometry">
                        <mxPoint x="-430" y="1870" as="sourcePoint"/>
                        <mxPoint x="-370" y="1780" as="targetPoint"/>
                        <Array as="points">
                            <mxPoint x="-370" y="1731"/>
                        </Array>
                    </mxGeometry>
                </mxCell>
                <mxCell id="50" value="suma de ountos tallador ==suma de puntos j" style="rhombus;whiteSpace=wrap;html=1;" vertex="1" parent="1">
                    <mxGeometry x="-430" y="1780" width="120" height="100" as="geometry"/>
                </mxCell>
                <mxCell id="51" value="" style="endArrow=classic;html=1;exitX=0.99;exitY=0.554;exitDx=0;exitDy=0;exitPerimeter=0;" edge="1" parent="1" source="50">
                    <mxGeometry width="50" height="50" relative="1" as="geometry">
                        <mxPoint x="-410" y="1950" as="sourcePoint"/>
                        <mxPoint x="-259.2" y="1900" as="targetPoint"/>
                        <Array as="points">
                            <mxPoint x="-259" y="1835"/>
                        </Array>
                    </mxGeometry>
                </mxCell>
                <mxCell id="52" value="talllador gana" style="shape=document;whiteSpace=wrap;html=1;boundedLbl=1;" vertex="1" parent="1">
                    <mxGeometry x="-316" y="1900" width="120" height="80" as="geometry"/>
                </mxCell>
                <mxCell id="53" value="" style="endArrow=classic;html=1;exitX=0;exitY=0.5;exitDx=0;exitDy=0;" edge="1" parent="1" source="50">
                    <mxGeometry width="50" height="50" relative="1" as="geometry">
                        <mxPoint x="-520" y="1930" as="sourcePoint"/>
                        <mxPoint x="-490" y="1920" as="targetPoint"/>
                        <Array as="points">
                            <mxPoint x="-490" y="1830"/>
                        </Array>
                    </mxGeometry>
                </mxCell>
                <mxCell id="54" value="gana el tallador por suma de puntos" style="shape=document;whiteSpace=wrap;html=1;boundedLbl=1;" vertex="1" parent="1">
                    <mxGeometry x="-550" y="1920" width="120" height="80" as="geometry"/>
                </mxCell>
                <mxCell id="55" value="" style="endArrow=classic;html=1;exitX=0;exitY=0.5;exitDx=0;exitDy=0;" edge="1" parent="1" source="48">
                    <mxGeometry width="50" height="50" relative="1" as="geometry">
                        <mxPoint x="-650" y="1860" as="sourcePoint"/>
                        <mxPoint x="-680" y="1840" as="targetPoint"/>
                        <Array as="points">
                            <mxPoint x="-680" y="1725"/>
                        </Array>
                    </mxGeometry>
                </mxCell>
                <mxCell id="56" value="el tallador ha volado" style="shape=document;whiteSpace=wrap;html=1;boundedLbl=1;" vertex="1" parent="1">
                    <mxGeometry x="-740" y="1840" width="120" height="80" as="geometry"/>
                </mxCell>
                <mxCell id="57" value="" style="endArrow=classic;html=1;" edge="1" parent="1" source="56">
                    <mxGeometry width="50" height="50" relative="1" as="geometry">
                        <mxPoint x="-350" y="1200" as="sourcePoint"/>
                        <mxPoint x="-40" y="1180" as="targetPoint"/>
                        <Array as="points">
                            <mxPoint x="-680" y="2080"/>
                            <mxPoint x="-790" y="2080"/>
                            <mxPoint x="-790" y="1180"/>
                        </Array>
                    </mxGeometry>
                </mxCell>
                <mxCell id="58" value="" style="endArrow=none;html=1;exitX=0.561;exitY=0.852;exitDx=0;exitDy=0;exitPerimeter=0;" edge="1" parent="1" source="54">
                    <mxGeometry width="50" height="50" relative="1" as="geometry">
                        <mxPoint x="-450" y="2100" as="sourcePoint"/>
                        <mxPoint x="-690" y="2080" as="targetPoint"/>
                        <Array as="points">
                            <mxPoint x="-483" y="2080"/>
                        </Array>
                    </mxGeometry>
                </mxCell>
                <mxCell id="59" value="" style="endArrow=none;html=1;entryX=0.587;entryY=0.834;entryDx=0;entryDy=0;entryPerimeter=0;" edge="1" parent="1" target="52">
                    <mxGeometry width="50" height="50" relative="1" as="geometry">
                        <mxPoint x="-490" y="2080" as="sourcePoint"/>
                        <mxPoint x="-270" y="2030" as="targetPoint"/>
                        <Array as="points">
                            <mxPoint x="-246" y="2080"/>
                        </Array>
                    </mxGeometry>
                </mxCell>
                <mxCell id="60" value="" style="endArrow=none;html=1;exitX=0.442;exitY=0.975;exitDx=0;exitDy=0;exitPerimeter=0;" edge="1" parent="1" source="46">
                    <mxGeometry width="50" height="50" relative="1" as="geometry">
                        <mxPoint x="-160" y="1870" as="sourcePoint"/>
                        <mxPoint x="-240" y="2080" as="targetPoint"/>
                        <Array as="points">
                            <mxPoint x="-277" y="1810"/>
                            <mxPoint x="-110" y="1810"/>
                            <mxPoint x="-110" y="2080"/>
                        </Array>
                    </mxGeometry>
                </mxCell>
                <mxCell id="61" value="" style="endArrow=none;html=1;exitX=0.5;exitY=1;exitDx=0;exitDy=0;entryX=0.583;entryY=1;entryDx=0;entryDy=0;entryPerimeter=0;" edge="1" parent="1" source="40" target="38">
                    <mxGeometry width="50" height="50" relative="1" as="geometry">
                        <mxPoint x="180" y="1720" as="sourcePoint"/>
                        <mxPoint x="130" y="1610" as="targetPoint"/>
                        <Array as="points">
                            <mxPoint x="-200" y="1650"/>
                            <mxPoint x="-120" y="1650"/>
                            <mxPoint x="-120" y="1750"/>
                            <mxPoint x="130" y="1750"/>
                        </Array>
                    </mxGeometry>
                </mxCell>
                <mxCell id="62" value="" style="endArrow=none;html=1;" edge="1" parent="1">
                    <mxGeometry width="50" height="50" relative="1" as="geometry">
                        <mxPoint y="1750" as="sourcePoint"/>
                        <mxPoint x="-110" y="2080" as="targetPoint"/>
                        <Array as="points">
                            <mxPoint y="2080"/>
                        </Array>
                    </mxGeometry>
                </mxCell>
                <mxCell id="63" value="" style="endArrow=none;html=1;exitX=0.508;exitY=0.894;exitDx=0;exitDy=0;exitPerimeter=0;" edge="1" parent="1" source="30">
                    <mxGeometry width="50" height="50" relative="1" as="geometry">
                        <mxPoint x="310" y="1390" as="sourcePoint"/>
                        <mxPoint x="131" y="1750" as="targetPoint"/>
                        <Array as="points">
                            <mxPoint x="131" y="1440"/>
                            <mxPoint x="240" y="1440"/>
                            <mxPoint x="240" y="1750"/>
                        </Array>
                    </mxGeometry>
                </mxCell>
                <mxCell id="64" value="" style="endArrow=classic;html=1;exitX=0.608;exitY=0.842;exitDx=0;exitDy=0;exitPerimeter=0;" edge="1" parent="1" source="25">
                    <mxGeometry width="50" height="50" relative="1" as="geometry">
                        <mxPoint x="370" y="1250" as="sourcePoint"/>
                        <mxPoint x="342.85714285714283" y="400" as="targetPoint"/>
                        <Array as="points">
                            <mxPoint x="170" y="1170"/>
                            <mxPoint x="680" y="1170"/>
                            <mxPoint x="680" y="400"/>
                        </Array>
                    </mxGeometry>
                </mxCell>
                <mxCell id="65" value="" style="endArrow=none;html=1;exitX=0.539;exitY=0.821;exitDx=0;exitDy=0;exitPerimeter=0;" edge="1" parent="1" source="17">
                    <mxGeometry width="50" height="50" relative="1" as="geometry">
                        <mxPoint x="550" y="950" as="sourcePoint"/>
                        <mxPoint x="525" y="1170" as="targetPoint"/>
                    </mxGeometry>
                </mxCell>
            </root>
        </mxGraphModel>
    </diagram>
</mxfile>